solid OpenSCAD_Model
  facet normal -0 0 1
    outer loop
      vertex 2.75 2.5 130
      vertex 45.25 0 130
      vertex 45.25 2.5 130
    endloop
  endfacet
  facet normal 0 0 1
    outer loop
      vertex 45.25 0 130
      vertex 2.75 2.5 130
      vertex 2.75 0 130
    endloop
  endfacet
  facet normal 0 0 -1
    outer loop
      vertex 2.75 0 0
      vertex 45.25 2.5 0
      vertex 45.25 0 0
    endloop
  endfacet
  facet normal -0 0 -1
    outer loop
      vertex 45.25 2.5 0
      vertex 2.75 0 0
      vertex 2.75 2.5 0
    endloop
  endfacet
  facet normal 0 -1 0
    outer loop
      vertex 2.75 0 0
      vertex 45.25 0 130
      vertex 2.75 0 130
    endloop
  endfacet
  facet normal 0 -1 -0
    outer loop
      vertex 45.25 0 130
      vertex 2.75 0 0
      vertex 45.25 0 0
    endloop
  endfacet
  facet normal 1 -0 0
    outer loop
      vertex 45.25 0 130
      vertex 45.25 2.5 0
      vertex 45.25 2.5 130
    endloop
  endfacet
  facet normal 1 0 0
    outer loop
      vertex 45.25 2.5 0
      vertex 45.25 0 130
      vertex 45.25 0 0
    endloop
  endfacet
  facet normal 0 1 -0
    outer loop
      vertex 45.25 2.5 0
      vertex 2.75 2.5 130
      vertex 45.25 2.5 130
    endloop
  endfacet
  facet normal 0 1 0
    outer loop
      vertex 2.75 2.5 130
      vertex 45.25 2.5 0
      vertex 2.75 2.5 0
    endloop
  endfacet
  facet normal -1 0 0
    outer loop
      vertex 2.75 0 0
      vertex 2.75 2.5 130
      vertex 2.75 2.5 0
    endloop
  endfacet
  facet normal -1 -0 0
    outer loop
      vertex 2.75 2.5 130
      vertex 2.75 0 0
      vertex 2.75 0 130
    endloop
  endfacet
endsolid OpenSCAD_Model
